<?xml version="1.0" encoding="utf-8"?>
<!-- Generator: Adobe Illustrator 24.0.1, SVG Export Plug-In . SVG Version: 6.00 Build 0)  -->
<svg version="1.1" id="Camada_1" xmlns="http://www.w3.org/2000/svg" xmlns:xlink="http://www.w3.org/1999/xlink" x="0px" y="0px"
	 viewBox="0 0 350 350" style="enable-background:new 0 0 350 350;" xml:space="preserve">
<style type="text/css">
	.st0{fill:#FAF8FF;}
</style>
<path class="st0" d="M151.9,161.4c-4.5,7.6-74.6,8.8-112.9-12.6c-38.3-21.4-19.7-87,19.1-104.2S156.4,153.9,151.9,161.4z"/>
<path class="st0" d="M151.3,187.7c4.5,7.6-29.4,67.1-67.7,88.6c-38.3,21.4-87.4-27-83.4-68.2C4.3,166.8,146.8,180.1,151.3,187.7z"/>
<path class="st0" d="M174.5,201.2c9,0,45.2,58.3,45.2,101.2c0,42.9-67.8,60-102.5,36C82.4,314.4,165.5,201.2,174.5,201.2z"/>
<path class="st0" d="M198.1,188.6c4.5-7.6,74.6-8.8,112.9,12.6c38.3,21.4,19.7,87-19.1,104.2C253.1,322.6,193.6,196.1,198.1,188.6z"
	/>
<path class="st0" d="M198.7,162.3c-4.5-7.6,29.4-67.1,67.7-88.6c38.3-21.4,87.4,27,83.4,68.2C345.7,183.2,203.2,169.9,198.7,162.3z"
	/>
<path class="st0" d="M175.5,148.8c-9,0-45.2-58.3-45.2-101.2c0-42.9,67.8-60,102.5-36C267.6,35.6,184.5,148.8,175.5,148.8z"/>
</svg>
