<?xml version="1.0" encoding="utf-8"?>
<!-- Generator: Adobe Illustrator 24.0.1, SVG Export Plug-In . SVG Version: 6.00 Build 0)  -->
<svg version="1.1" id="Camada_1" xmlns="http://www.w3.org/2000/svg" xmlns:xlink="http://www.w3.org/1999/xlink" x="0px" y="0px"
	 viewBox="0 0 2500 2500" style="enable-background:new 0 0 2500 2500;" xml:space="preserve">
<style type="text/css">
	.st0{fill:#FFFFFF;}
	.st1{stroke:#FFFFFF;stroke-miterlimit:10;}
</style>
<circle class="st0" cx="1250" cy="1250" r="1250"/>
<g>
	<path class="st1" d="M616.7,1292l5.4-8.5l325.2-508.7c3.3-5.2,10.2-6.7,15.4-3.4c1.8,1.2,3.2,2.8,4.1,4.8
		c54.3,121.7,101.2,273.1,79.2,367.4c-9.4,38.8-35,91.3-63.9,139.8c-3.8,7.1-7.8,14-12.2,20.7c-2.1,3.1-5.5,4.9-9.3,4.9H626.2
		C617.2,1309.1,612,1299.3,616.7,1292L616.7,1292z"/>
	<path class="st1" d="M2066.1,1386.5v80.5c0,4.7-2.8,8.7-6.9,10.6c-25.2,10.8-111.3,50.3-147.2,100.2
		c-91.4,127.2-161.3,309.3-317.5,309.3H943c-230.9,0-418-187.8-418-419.5v-7.4c0-6.2,5-11.2,11.2-11.2h363.2
		c7.2,0,12.5,6.7,11.8,13.8c-2.6,24,2,48.2,13,69.7c21.5,43.6,65.9,71.2,114.5,71.1h179.8v-140.4h-177.8
		c-6.3-0.1-11.4-5.3-11.3-11.6c0-2.3,0.7-4.5,2.1-6.4c2-2.9,4.1-6,6.4-9.5c23.2-33.4,44.8-67.8,64.8-103.3
		c16.3-28.5,32.1-59,44.8-89.5c2.6-5.5,4.6-11.2,6.7-16.7c3.5-9.8,7.1-18.9,9.7-28c2.6-7.7,4.6-15.8,6.7-23.4
		c6-25.9,8.6-53.4,8.6-81.9c0-11.2-0.5-22.9-1.6-34c-0.5-12.2-2.1-24.4-3.6-36.6c-1.2-10.9-2.9-21.8-5-32.6
		c-2.7-16.4-6.1-32.7-10.3-48.8l-1.4-6.1c-3.1-11.2-5.7-21.8-9.3-33c-9.9-34.2-21.3-68-34.2-101.2c-4.5-12.7-9.6-24.9-14.8-37.1
		c-7.6-18.4-15.3-35.1-22.4-50.9c-3.6-7.2-6.7-13.7-9.8-20.4c-3.4-7.5-7-15-10.7-22.3c-2.6-5.5-5.5-10.7-7.6-15.8l-22-40.6
		c-1.9-3.4-0.7-7.8,2.7-9.7c1.6-0.9,3.6-1.2,5.4-0.7l137.4,37.3h0.4c0.3,0,0.4,0.1,0.5,0.1l18.1,5l19.9,5.6l7.3,2.1v-81.7
		c0-39.4,31.6-71.4,70.6-71.4c19.5,0,37.3,8,50,20.9c12.7,13,20.7,30.7,20.7,50.5v121.2l14.6,4.1c1.2,0.4,2.3,0.9,3.3,1.7
		c3.6,2.7,8.8,6.7,15.3,11.5c5.2,4.1,10.7,9.1,17.3,14.3c13.2,10.7,29,24.4,46.3,40.2c4.6,4,9.1,8.1,13.3,12.2
		c24.9,22.9,48.7,47,71.3,72.2c6.7,7.6,13.3,15.3,19.9,23.4c6.7,8.2,13.7,16.3,19.9,24.4c8.1,10.8,16.8,22,24.4,33.7
		c3.6,5.5,7.7,11.2,11.2,16.7c9.8,14.8,18.4,30,26.6,45.3c3.5,7.1,7.1,14.8,10.2,22.4c9.1,20.4,16.3,41.3,20.9,62
		c1.4,4.5,2.4,9.4,2.9,13.8v1c1.5,6.2,2.1,12.7,2.6,19.4c2.1,21.4,0.9,43-3.6,64.1c-2,9.1-4.5,18.1-7.6,26.8
		c-3.1,8.8-6.2,17.9-10.1,26.4c-7.7,18.2-17,35.7-27.6,52.4c-3.5,6.2-7.6,12.7-11.7,18.9c-4.5,6.5-9.1,12.7-13.2,18.8
		c-5.6,7.7-11.7,15.8-17.8,23c-5.5,7.6-11.2,15.2-17.3,21.8c-8.3,9.9-16.7,19.5-25.4,29c-5.2,6-10.7,12.2-16.3,17.8
		c-5.5,6.1-11.2,11.7-16.3,16.8c-8.6,8.6-15.8,15.3-21.8,20.8l-14.1,13c-2.1,1.8-4.8,2.8-7.6,2.8h-109.4v140.4h137.7
		c30.7,0,60.4-11,83.7-31c8.1-7.1,43.4-37.6,85.2-83.7c1.4-1.6,3.2-2.7,5.3-3.2l380.3-109.9c6-1.7,12.2,1.8,13.8,7.8
		C2065.9,1384.5,2066.1,1385.5,2066.1,1386.5L2066.1,1386.5z"/>
</g>
</svg>
