<?xml version="1.0" encoding="utf-8"?>
<!-- Generator: Adobe Illustrator 24.0.1, SVG Export Plug-In . SVG Version: 6.00 Build 0)  -->
<svg version="1.1" id="Camada_1" xmlns="http://www.w3.org/2000/svg" xmlns:xlink="http://www.w3.org/1999/xlink" x="0px" y="0px"
	 viewBox="0 0 2500 1684" style="enable-background:new 0 0 2500 1684;" xml:space="preserve">
<style type="text/css">
	.st0{fill:#FFFFFF;}
</style>
<path class="st0" d="M955.2,1684c699.7,0,1082.3-579.9,1082.3-1082.7c0-16.5-0.3-32.9-1.1-49.2c74.4-53.9,138.7-120.6,189.7-197
	c-68.2,30.3-141.5,50.7-218.4,59.9c78.5-47.1,138.8-121.6,167.3-210.5c-74.7,44.3-156.4,75.5-241.5,92.4
	c-69.4-74-168.2-120.2-277.7-120.2c-210.1,0-380.4,170.4-380.4,380.5c0,29.9,3.3,58.9,9.9,86.8C969.1,628,688.8,476.6,501.2,246.3
	c-33.8,58.1-51.6,124.1-51.5,191.3c0,132,67.2,248.6,169.3,316.7c-60.4-1.8-119.5-18.2-172.3-47.6c-0.1,1.6-0.1,3.2-0.1,4.9
	c0,184.3,131.1,338.1,305.2,373c-32.7,8.9-66.4,13.4-100.3,13.4c-24.5,0-48.3-2.4-71.5-6.9c48.4,151.2,188.8,261.2,355.3,264.3
	c-130.2,102.1-294.2,162.9-472.4,162.9c-30.3,0-60.6-1.7-90.7-5.3C540.5,1621,740.4,1684,955.2,1684"/>
</svg>
